<?xml version="1.0" standalone="no"?>
<!DOCTYPE svg PUBLIC "-//W3C//DTD SVG 20010904//EN"
 "http://www.w3.org/TR/2001/REC-SVG-20010904/DTD/svg10.dtd">
<svg version="1.0" xmlns="http://www.w3.org/2000/svg"
 width="1024.000000pt" height="1024.000000pt" viewBox="0 0 1024.000000 1024.000000"
 preserveAspectRatio="xMidYMid meet">
<metadata>
Created by potrace 1.14, written by Peter Selinger 2001-2017
</metadata>
<g transform="translate(0.000000,1024.000000) scale(0.100000,-0.100000)"
fill="#000000" stroke="none">
<path d="M2303 6569 c-188 -32 -349 -171 -403 -346 -20 -64 -20 -88 -20 -1503
0 -1401 1 -1440 20 -1501 35 -115 102 -204 205 -271 126 -83 292 -105 430 -57
80 28 2442 1388 2515 1448 227 187 227 571 0 762 -70 58 -2433 1419 -2510
1445 -79 27 -167 35 -237 23z"/>
<path d="M4670 3601 c-75 -24 -147 -90 -178 -160 -23 -54 -20 -157 6 -207 30
-58 113 -130 277 -239 363 -242 772 -385 1215 -425 559 -49 1140 100 1627 419
205 134 256 196 256 311 0 63 -29 140 -71 183 -53 56 -108 80 -193 85 -101 6
-140 -8 -279 -102 -339 -228 -724 -346 -1130 -346 -411 0 -804 122 -1138 354
-171 118 -195 129 -287 133 -44 1 -91 -1 -105 -6z"/>
</g>
</svg>
